%TF.GenerationSoftware,KiCad,Pcbnew,9.0.6*%
%TF.CreationDate,2026-07-05T13:53:50+05:30*%
%TF.ProjectId,rp2040 led,72703230-3430-4206-9c65-642e6b696361,rev?*%
%TF.SameCoordinates,Original*%
%TF.FileFunction,Plated,1,2,PTH,Mixed*%
%TF.FilePolarity,Positive*%
%FSLAX46Y46*%
G04 Gerber Fmt 4.6, Leading zero omitted, Abs format (unit mm)*
G04 Created by KiCad (PCBNEW 9.0.6) date 2026-07-05 13:53:50*
%MOMM*%
%LPD*%
G01*
G04 APERTURE LIST*
%TA.AperFunction,ViaDrill*%
%ADD10C,0.300000*%
%TD*%
G04 aperture for slot hole*
%TA.AperFunction,ComponentDrill*%
%ADD11C,0.600000*%
%TD*%
%TA.AperFunction,ComponentDrill*%
%ADD12C,1.000000*%
%TD*%
G04 APERTURE END LIST*
D10*
X82800000Y-33300000D03*
X82800000Y-35800000D03*
X82800000Y-46000000D03*
X82800000Y-48600000D03*
X82800000Y-53700000D03*
X82800000Y-58800000D03*
X82800000Y-61100000D03*
X82800000Y-63800000D03*
X82800000Y-68900000D03*
X82800000Y-71400000D03*
X82800000Y-73900000D03*
X85100000Y-49400000D03*
X85200000Y-47600000D03*
X85200000Y-58700000D03*
X85600000Y-36500000D03*
X86000000Y-66300000D03*
X86300000Y-54100000D03*
X86400000Y-73600000D03*
X87600000Y-64800000D03*
X88200000Y-40100000D03*
X89100000Y-46900000D03*
X89200000Y-48900000D03*
X89900000Y-40500000D03*
X91400000Y-48400000D03*
X91500000Y-38800000D03*
X91600000Y-30000000D03*
X91900000Y-34800000D03*
X92300000Y-40900000D03*
X92600000Y-62600000D03*
X93000000Y-59400000D03*
X94200000Y-41400000D03*
X94400000Y-37700000D03*
X94400000Y-59100000D03*
X94700000Y-73000000D03*
X95100000Y-52100000D03*
X95300000Y-45200000D03*
X95500000Y-56700000D03*
X95900000Y-53500000D03*
X95900000Y-55500000D03*
X96500000Y-57000000D03*
X96600000Y-67200000D03*
X96681250Y-55481250D03*
X96924265Y-61024265D03*
X97300000Y-31000000D03*
X97400000Y-28800000D03*
X97562500Y-54600000D03*
X97600000Y-37900000D03*
X97600000Y-56916975D03*
X97600000Y-60348528D03*
X97700000Y-42400000D03*
X97775000Y-39375000D03*
X98000000Y-52000000D03*
X98409659Y-56704330D03*
X99250000Y-59050000D03*
X99300000Y-32893000D03*
X99300000Y-56700000D03*
X99400000Y-75600000D03*
X99500000Y-71100000D03*
X99600000Y-77600000D03*
X99881870Y-55630311D03*
X100062690Y-53531259D03*
X100100000Y-56400000D03*
X100700000Y-39660000D03*
X101000000Y-46000000D03*
X101700000Y-41600000D03*
X102300000Y-58100000D03*
X102400000Y-73100000D03*
X103200000Y-59000000D03*
X103600000Y-57500000D03*
X103900000Y-37500000D03*
X104100000Y-29400000D03*
X104600000Y-58500000D03*
X105100000Y-43100000D03*
X105200000Y-71400000D03*
X105300000Y-73300000D03*
X105400000Y-75700000D03*
X106300000Y-56200000D03*
X107200000Y-34700000D03*
X107600000Y-61500000D03*
X107600000Y-63400000D03*
X108100000Y-48600000D03*
X108600000Y-43100000D03*
X108700000Y-58600000D03*
X110000000Y-58700000D03*
X110100000Y-71300000D03*
X112200000Y-53600000D03*
X112200000Y-56200000D03*
X112200000Y-58700000D03*
X112200000Y-61300000D03*
X112200000Y-71400000D03*
X112200000Y-73800000D03*
D11*
%TO.C,J4*%
X93180000Y-29025000D02*
X93180000Y-29825000D01*
X93180000Y-33055000D02*
X93180000Y-34155000D01*
X101820000Y-29025000D02*
X101820000Y-29825000D01*
X101820000Y-33055000D02*
X101820000Y-34155000D01*
D12*
%TO.C,J3*%
X83500000Y-29500000D03*
X83500000Y-32040000D03*
X83500000Y-34580000D03*
X83500000Y-37120000D03*
X83500000Y-39660000D03*
X83500000Y-42200000D03*
X83500000Y-44740000D03*
X83500000Y-47280000D03*
X83500000Y-49820000D03*
X83500000Y-52360000D03*
X83500000Y-54900000D03*
X83500000Y-57440000D03*
X83500000Y-59980000D03*
X83500000Y-62520000D03*
X83500000Y-65060000D03*
X83500000Y-67600000D03*
X83500000Y-70140000D03*
X83500000Y-72680000D03*
X83500000Y-75220000D03*
X83500000Y-77760000D03*
%TO.C,J1*%
X100460000Y-66200000D03*
X103000000Y-66200000D03*
X105540000Y-66200000D03*
%TO.C,J2*%
X111500000Y-29500000D03*
X111500000Y-32040000D03*
X111500000Y-34580000D03*
X111500000Y-37120000D03*
X111500000Y-39660000D03*
X111500000Y-42200000D03*
X111500000Y-44740000D03*
X111500000Y-47280000D03*
X111500000Y-49820000D03*
X111500000Y-52360000D03*
X111500000Y-54900000D03*
X111500000Y-57440000D03*
X111500000Y-59980000D03*
X111500000Y-62520000D03*
X111500000Y-65060000D03*
X111500000Y-67600000D03*
X111500000Y-70140000D03*
X111500000Y-72680000D03*
X111500000Y-75220000D03*
X111500000Y-77760000D03*
M02*
