%TF.GenerationSoftware,KiCad,Pcbnew,9.0.6*%
%TF.CreationDate,2026-07-05T13:53:42+05:30*%
%TF.ProjectId,rp2040 led,72703230-3430-4206-9c65-642e6b696361,rev?*%
%TF.SameCoordinates,Original*%
%TF.FileFunction,Soldermask,Bot*%
%TF.FilePolarity,Negative*%
%FSLAX46Y46*%
G04 Gerber Fmt 4.6, Leading zero omitted, Abs format (unit mm)*
G04 Created by KiCad (PCBNEW 9.0.6) date 2026-07-05 13:53:42*
%MOMM*%
%LPD*%
G01*
G04 APERTURE LIST*
%ADD10R,1.700000X1.700000*%
%ADD11C,1.700000*%
%ADD12C,0.650000*%
%ADD13O,1.204000X2.304000*%
%ADD14O,1.204000X2.004000*%
G04 APERTURE END LIST*
D10*
%TO.C,J2*%
X111500000Y-29500000D03*
D11*
X111500000Y-32040000D03*
X111500000Y-34580000D03*
X111500000Y-37120000D03*
X111500000Y-39660000D03*
X111500000Y-42200000D03*
X111500000Y-44740000D03*
X111500000Y-47280000D03*
X111500000Y-49820000D03*
X111500000Y-52360000D03*
X111500000Y-54900000D03*
X111500000Y-57440000D03*
X111500000Y-59980000D03*
X111500000Y-62520000D03*
X111500000Y-65060000D03*
X111500000Y-67600000D03*
X111500000Y-70140000D03*
X111500000Y-72680000D03*
X111500000Y-75220000D03*
X111500000Y-77760000D03*
%TD*%
D10*
%TO.C,J3*%
X83500000Y-29500000D03*
D11*
X83500000Y-32040000D03*
X83500000Y-34580000D03*
X83500000Y-37120000D03*
X83500000Y-39660000D03*
X83500000Y-42200000D03*
X83500000Y-44740000D03*
X83500000Y-47280000D03*
X83500000Y-49820000D03*
X83500000Y-52360000D03*
X83500000Y-54900000D03*
X83500000Y-57440000D03*
X83500000Y-59980000D03*
X83500000Y-62520000D03*
X83500000Y-65060000D03*
X83500000Y-67600000D03*
X83500000Y-70140000D03*
X83500000Y-72680000D03*
X83500000Y-75220000D03*
X83500000Y-77760000D03*
%TD*%
D10*
%TO.C,J1*%
X105540000Y-66200000D03*
D11*
X103000000Y-66200000D03*
X100460000Y-66200000D03*
%TD*%
D12*
%TO.C,J4*%
X100390000Y-33105000D03*
X94610000Y-33105000D03*
D13*
X101820000Y-33605000D03*
D14*
X101820000Y-29425000D03*
D13*
X93180000Y-33605000D03*
D14*
X93180000Y-29425000D03*
%TD*%
M02*
