%TF.GenerationSoftware,KiCad,Pcbnew,9.0.6*%
%TF.CreationDate,2026-07-05T13:53:41+05:30*%
%TF.ProjectId,rp2040 led,72703230-3430-4206-9c65-642e6b696361,rev?*%
%TF.SameCoordinates,Original*%
%TF.FileFunction,Paste,Top*%
%TF.FilePolarity,Positive*%
%FSLAX46Y46*%
G04 Gerber Fmt 4.6, Leading zero omitted, Abs format (unit mm)*
G04 Created by KiCad (PCBNEW 9.0.6) date 2026-07-05 13:53:41*
%MOMM*%
%LPD*%
G01*
G04 APERTURE LIST*
G04 Aperture macros list*
%AMRoundRect*
0 Rectangle with rounded corners*
0 $1 Rounding radius*
0 $2 $3 $4 $5 $6 $7 $8 $9 X,Y pos of 4 corners*
0 Add a 4 corners polygon primitive as box body*
4,1,4,$2,$3,$4,$5,$6,$7,$8,$9,$2,$3,0*
0 Add four circle primitives for the rounded corners*
1,1,$1+$1,$2,$3*
1,1,$1+$1,$4,$5*
1,1,$1+$1,$6,$7*
1,1,$1+$1,$8,$9*
0 Add four rect primitives between the rounded corners*
20,1,$1+$1,$2,$3,$4,$5,0*
20,1,$1+$1,$4,$5,$6,$7,0*
20,1,$1+$1,$6,$7,$8,$9,0*
20,1,$1+$1,$8,$9,$2,$3,0*%
G04 Aperture macros list end*
%ADD10R,1.800000X1.350000*%
%ADD11RoundRect,0.237500X-0.237500X0.250000X-0.237500X-0.250000X0.237500X-0.250000X0.237500X0.250000X0*%
%ADD12R,1.600000X0.850000*%
%ADD13RoundRect,0.237500X0.237500X-0.300000X0.237500X0.300000X-0.237500X0.300000X-0.237500X-0.300000X0*%
%ADD14RoundRect,0.237500X-0.300000X-0.237500X0.300000X-0.237500X0.300000X0.237500X-0.300000X0.237500X0*%
%ADD15RoundRect,0.237500X0.237500X-0.250000X0.237500X0.250000X-0.237500X0.250000X-0.237500X-0.250000X0*%
%ADD16RoundRect,0.237500X0.300000X0.237500X-0.300000X0.237500X-0.300000X-0.237500X0.300000X-0.237500X0*%
%ADD17RoundRect,0.237500X0.044194X0.380070X-0.380070X-0.044194X-0.044194X-0.380070X0.380070X0.044194X0*%
%ADD18RoundRect,0.040000X-0.040000X-0.605000X0.040000X-0.605000X0.040000X0.605000X-0.040000X0.605000X0*%
%ADD19RoundRect,0.062500X-0.387500X-0.062500X0.387500X-0.062500X0.387500X0.062500X-0.387500X0.062500X0*%
%ADD20RoundRect,0.150000X0.150000X-0.587500X0.150000X0.587500X-0.150000X0.587500X-0.150000X-0.587500X0*%
%ADD21RoundRect,0.237500X-0.237500X0.300000X-0.237500X-0.300000X0.237500X-0.300000X0.237500X0.300000X0*%
%ADD22RoundRect,0.237500X-0.250000X-0.237500X0.250000X-0.237500X0.250000X0.237500X-0.250000X0.237500X0*%
%ADD23RoundRect,0.237500X0.250000X0.237500X-0.250000X0.237500X-0.250000X-0.237500X0.250000X-0.237500X0*%
%ADD24RoundRect,0.180000X0.520000X0.420000X-0.520000X0.420000X-0.520000X-0.420000X0.520000X-0.420000X0*%
%ADD25RoundRect,0.249999X-0.395001X-0.395001X0.395001X-0.395001X0.395001X0.395001X-0.395001X0.395001X0*%
%ADD26RoundRect,0.050000X-0.387500X-0.050000X0.387500X-0.050000X0.387500X0.050000X-0.387500X0.050000X0*%
%ADD27RoundRect,0.050000X-0.050000X-0.387500X0.050000X-0.387500X0.050000X0.387500X-0.050000X0.387500X0*%
%ADD28R,0.600000X1.150000*%
%ADD29R,0.300000X1.150000*%
G04 APERTURE END LIST*
D10*
%TO.C,SW1*%
X89000000Y-30350000D03*
X89000000Y-34500000D03*
%TD*%
D11*
%TO.C,R2*%
X96000000Y-36500000D03*
X96000000Y-38325000D03*
%TD*%
D12*
%TO.C,D3*%
X97700000Y-75850000D03*
X97700000Y-77600000D03*
X101200000Y-77600000D03*
X101200000Y-75850000D03*
%TD*%
D13*
%TO.C,C3*%
X102500000Y-49000000D03*
X102500000Y-47275000D03*
%TD*%
%TO.C,C10*%
X96500000Y-46000000D03*
X96500000Y-44274998D03*
%TD*%
%TO.C,C15*%
X97600000Y-65725002D03*
X97600000Y-64000000D03*
%TD*%
D14*
%TO.C,C14*%
X94600000Y-40200000D03*
X96325000Y-40200000D03*
%TD*%
D15*
%TO.C,R8*%
X105500000Y-32525000D03*
X105500000Y-30700000D03*
%TD*%
D16*
%TO.C,C13*%
X90000000Y-36500000D03*
X88274998Y-36500000D03*
%TD*%
D17*
%TO.C,C1*%
X105519760Y-47480240D03*
X104300000Y-48700000D03*
%TD*%
D13*
%TO.C,C17*%
X94000000Y-44500000D03*
X94000000Y-42774998D03*
%TD*%
D18*
%TO.C,U3*%
X92500000Y-47000000D03*
D19*
X91075000Y-46250000D03*
X91075000Y-46750000D03*
X91075000Y-47250000D03*
X91075000Y-47750000D03*
X93925000Y-47750000D03*
X93925000Y-47250000D03*
X93925000Y-46750000D03*
X93925000Y-46250000D03*
%TD*%
D20*
%TO.C,U2*%
X90550000Y-39375000D03*
X92450000Y-39375000D03*
X91500000Y-37500000D03*
%TD*%
D21*
%TO.C,C12*%
X101500000Y-60637500D03*
X101500000Y-62362500D03*
%TD*%
D12*
%TO.C,D1*%
X97700000Y-71350000D03*
X97700000Y-73100000D03*
X101200000Y-73100000D03*
X101200000Y-71350000D03*
%TD*%
%TO.C,D2*%
X103700000Y-71350000D03*
X103700000Y-73100000D03*
X107200000Y-73100000D03*
X107200000Y-71350000D03*
%TD*%
D11*
%TO.C,R6*%
X89000000Y-43000000D03*
X89000000Y-44825000D03*
%TD*%
D22*
%TO.C,R7*%
X90500000Y-44000000D03*
X92325000Y-44000000D03*
%TD*%
D14*
%TO.C,C7*%
X103500000Y-55200000D03*
X105225000Y-55200000D03*
%TD*%
D16*
%TO.C,C2*%
X90500000Y-55700000D03*
X88775000Y-55700000D03*
%TD*%
D21*
%TO.C,C5*%
X100000000Y-60637500D03*
X100000000Y-62362500D03*
%TD*%
D13*
%TO.C,C4*%
X101000000Y-45000000D03*
X101000000Y-43275000D03*
%TD*%
D23*
%TO.C,R3*%
X97900000Y-62225001D03*
X96075000Y-62225001D03*
%TD*%
D24*
%TO.C,Y1*%
X95300000Y-64025001D03*
X93100000Y-64025001D03*
X93100000Y-65725001D03*
X95300000Y-65725001D03*
%TD*%
D11*
%TO.C,R5*%
X99500000Y-46047596D03*
X99500000Y-47872596D03*
%TD*%
D14*
%TO.C,C8*%
X104200000Y-50500000D03*
X105925000Y-50500000D03*
%TD*%
D13*
%TO.C,C11*%
X101000000Y-49000000D03*
X101000000Y-47275000D03*
%TD*%
%TO.C,C9*%
X102500000Y-45000000D03*
X102500000Y-43275000D03*
%TD*%
D11*
%TO.C,R4*%
X98000000Y-46047596D03*
X98000000Y-47872596D03*
%TD*%
D25*
%TO.C,U1*%
X96762500Y-53800000D03*
X96762500Y-55400000D03*
X98362500Y-53800000D03*
X98362500Y-55400000D03*
D26*
X94125000Y-52000000D03*
X94125000Y-52400000D03*
X94125000Y-52800000D03*
X94125000Y-53200000D03*
X94125000Y-53600000D03*
X94125000Y-54000000D03*
X94125000Y-54400000D03*
X94125000Y-54800000D03*
X94125000Y-55200000D03*
X94125000Y-55600000D03*
X94125000Y-56000000D03*
X94125000Y-56400000D03*
X94125000Y-56800000D03*
X94125000Y-57200000D03*
D27*
X94962500Y-58037500D03*
X95362500Y-58037500D03*
X95762500Y-58037500D03*
X96162500Y-58037500D03*
X96562500Y-58037500D03*
X96962500Y-58037500D03*
X97362500Y-58037500D03*
X97762500Y-58037500D03*
X98162500Y-58037500D03*
X98562500Y-58037500D03*
X98962500Y-58037500D03*
X99362500Y-58037500D03*
X99762500Y-58037500D03*
X100162500Y-58037500D03*
D26*
X101000000Y-57200000D03*
X101000000Y-56800000D03*
X101000000Y-56400000D03*
X101000000Y-56000000D03*
X101000000Y-55600000D03*
X101000000Y-55200000D03*
X101000000Y-54800000D03*
X101000000Y-54400000D03*
X101000000Y-54000000D03*
X101000000Y-53600000D03*
X101000000Y-53200000D03*
X101000000Y-52800000D03*
X101000000Y-52400000D03*
X101000000Y-52000000D03*
D27*
X100162500Y-51162500D03*
X99762500Y-51162500D03*
X99362500Y-51162500D03*
X98962500Y-51162500D03*
X98562500Y-51162500D03*
X98162500Y-51162500D03*
X97762500Y-51162500D03*
X97362500Y-51162500D03*
X96962500Y-51162500D03*
X96562500Y-51162500D03*
X96162500Y-51162500D03*
X95762500Y-51162500D03*
X95362500Y-51162500D03*
X94962500Y-51162500D03*
%TD*%
D28*
%TO.C,J4*%
X100700000Y-34170000D03*
X94300000Y-34170000D03*
X99900000Y-34170000D03*
X95100000Y-34170000D03*
D29*
X98750000Y-34170000D03*
X97750000Y-34170000D03*
X97250000Y-34170000D03*
X96250000Y-34170000D03*
X95750000Y-34170000D03*
X96750000Y-34170000D03*
X98250000Y-34170000D03*
X99250000Y-34170000D03*
%TD*%
D12*
%TO.C,D4*%
X103700000Y-75850000D03*
X103700000Y-77600000D03*
X107200000Y-77600000D03*
X107200000Y-75850000D03*
%TD*%
D16*
%TO.C,C6*%
X92125000Y-50700000D03*
X90400000Y-50700000D03*
%TD*%
D21*
%TO.C,C16*%
X91000000Y-64025001D03*
X91000000Y-65750003D03*
%TD*%
D15*
%TO.C,R1*%
X100500000Y-38325000D03*
X100500000Y-36500000D03*
%TD*%
M02*
